<?xml version="1.0" encoding="UTF-8"?>
<svg id="Camada_1" data-name="Camada 1" xmlns="http://www.w3.org/2000/svg" viewBox="0 0 13.19 16.11">
  <defs>
    <style>
      .cls-1 {
        fill: #f8a921;
      }
    </style>
  </defs>
  <path class="cls-1" d="M5.82,13.81h0c.08-.05.11-.15.06-.22l-.14-.21s-.03-.02-.04-.01c-.11.03-.58.16-1.02.13-1.1-.09-1.71-.73-1.9-.97-.02-.03-.07-.01-.07.02h0c0,1.13,2.11,1.88,3.11,1.26Z"/>
  <path class="cls-1" d="M6.32,14.53h0c.08-.08.1-.19.03-.25l-.17-.19s-.04,0-.06,0c-.12.07-.61.34-1.11.44-1.23.23-1.98-.26-2.22-.46-.03-.02-.08,0-.07.04,0,0,0,0,0,0,.14,1.2,2.58,1.36,3.6.41Z"/>
  <path class="cls-1" d="M7.4,15.05c-.22-.11-.38-.24-.48-.31-.05-.04-.09-.05-.17,0-.18.12-.62.4-1.06.6-.87.41-1.87-.03-1.91.13-.02.07.15.21.33.31.21.13.45.22.79.29.1.02.54.07,1.11.01.56-.06.97-.24,1.09-.29.41-.17.71-.37.92-.54,0,0,0,0,0,0-.15-.03-.38-.08-.62-.21Z"/>
  <path class="cls-1" d="M12.03,0h0l-6.45,6.68v-1.81c0-.28.03-.57.1-.85.11-.46.03-.88-.27-1.17-.52-.51-1.54-.43-2.44.13-.07-.1-.14-.2-.19-.26-.25-.29-.37-.4-.64-.64-.41-.36-1.39-.87-1.58-.91-.13-.03-.35-.03-.31.25.01.1.19.3.31.39.5.39,1.23.35,1.64.69.25.21.35.33.56.63-.08.06-.16.12-.23.18-.03.03-.07.06-.1.09-.12-.07-.23-.14-.39-.23-.48-.26-1.56-.54-1.75-.54-.13,0-.35.04-.25.32.04.1.26.25.39.31.58.27,1.28.07,1.76.31.01,0,.03.01.04.02-.18.2-.33.41-.45.63-.08.15-.17.34-.22.56-.08.32-.42,1.86-.42,1.86,0,0,.86-.12,1.57-.32v.15c-.39.36-.64.94-.64,1.58s.25,1.22.64,1.58v1.46c0,1.12,1.19,2.03,2.66,2.03h0c.07,0,.15,0,.19-.04,0,0,0,0,0-.01-.04-.08-.09-.18-.13-.25-.37-.82-.51-1.63-.43-2.24.11.15.23.3.36.44.51.57,1.1,1.06,1.69,1.41.33.19.65.34.95.45,1.08.44,2.48.29,3.37-.39l-3.77-3.96h0c.86-.1,1.95-.63,3.01-1.51.76-.64,1.39-1.37,1.82-2.08.24-.39.42-.78.53-1.14.5-1.28.13-2.86-.94-3.81Z"/>
</svg>