<?xml version="1.0" encoding="UTF-8"?>
<svg id="Camada_1" data-name="Camada 1" xmlns="http://www.w3.org/2000/svg" viewBox="0 0 26.2 32">
  <defs>
    <style>
      .cls-1 {
        fill: #f8a921;
      }
    </style>
  </defs>
  <path class="cls-1" d="M11.56,27.43h0c.16-.1.21-.3.11-.44l-.28-.41s-.05-.04-.08-.03c-.23.07-1.15.32-2.03.25-2.19-.18-3.39-1.44-3.77-1.92-.04-.05-.13-.02-.13.04h0c-.01,2.25,4.19,3.73,6.18,2.51Z"/>
  <path class="cls-1" d="M12.55,28.86h0c.16-.15.19-.38.06-.5l-.35-.38s-.08,0-.11.02c-.24.14-1.22.68-2.21.87-2.44.46-3.93-.52-4.41-.91-.05-.04-.15.01-.14.09,0,0,0,0,0,0,.29,2.38,5.11,2.7,7.15.81Z"/>
  <path class="cls-1" d="M14.69,29.89c-.44-.23-.76-.48-.94-.62-.09-.07-.19-.1-.34,0-.35.24-1.23.79-2.11,1.2-1.74.81-3.71-.06-3.8.26-.04.13.3.41.66.62.42.25.9.44,1.56.57.21.04,1.07.14,2.21.02,1.12-.12,1.92-.47,2.17-.57.8-.33,1.41-.74,1.82-1.06,0,0,0-.02,0-.02-.3-.05-.75-.16-1.23-.41Z"/>
  <path class="cls-1" d="M23.88,0h0l-12.81,13.26v-3.59c0-.56.07-1.13.2-1.68.21-.91.05-1.76-.54-2.33-1.03-1.01-3.05-.85-4.84.26-.14-.21-.28-.39-.38-.51-.51-.57-.74-.8-1.28-1.27-.81-.71-2.76-1.72-3.13-1.8-.25-.06-.69-.07-.62.51.02.2.38.59.61.77.99.78,2.45.69,3.26,1.37.5.42.69.65,1.1,1.24-.16.11-.31.24-.46.36-.07.06-.13.12-.2.18-.23-.14-.46-.27-.78-.45-.95-.52-3.1-1.07-3.48-1.07-.26,0-.69.09-.49.63.07.19.52.49.78.62,1.15.54,2.55.13,3.5.62.03.02.06.03.08.04-.37.4-.66.82-.89,1.24-.17.29-.33.67-.44,1.11-.15.64-.83,3.7-.83,3.7,0,0,1.72-.23,3.13-.64v.3c-.78.72-1.28,1.86-1.28,3.14s.5,2.43,1.28,3.14v2.89c0,2.23,2.37,4.03,5.28,4.03h0c.14,0,.3,0,.38-.08,0,0,0-.02,0-.03-.08-.15-.19-.35-.26-.51-.74-1.63-1.02-3.24-.85-4.44.22.29.46.59.72.88,1.01,1.14,2.19,2.11,3.36,2.8.65.38,1.29.68,1.9.89,2.15.87,4.92.57,6.69-.78l-7.48-7.87h0c1.7-.2,3.87-1.24,5.97-3.01,1.51-1.27,2.75-2.72,3.61-4.13.47-.78.83-1.54,1.05-2.26,1-2.54.25-5.68-1.88-7.57Z"/>
</svg>