<?xml version="1.0" encoding="UTF-8"?>
<svg id="Camada_1" data-name="Camada 1" xmlns="http://www.w3.org/2000/svg" viewBox="0 0 26.14 31.92">
  <defs>
    <style>
      .cls-1 {
        fill: #fff;
      }

      .cls-2 {
        fill: #f8a921;
      }
    </style>
  </defs>
  <g>
    <path class="cls-2" d="M11.53,27.37h0c.16-.1.21-.29.11-.44l-.28-.41s-.05-.04-.08-.03c-.23.07-1.14.32-2.03.25-2.18-.18-3.38-1.44-3.76-1.91-.04-.05-.13-.02-.13.04h0c-.01,2.24,4.18,3.72,6.16,2.5Z"/>
    <path class="cls-2" d="M12.52,28.79h0c.16-.15.19-.37.06-.5l-.35-.38s-.08,0-.11.02c-.24.14-1.22.68-2.2.87-2.43.46-3.92-.51-4.4-.9-.05-.04-.15.01-.14.09,0,0,0,0,0,0,.29,2.38,5.1,2.69,7.13.81Z"/>
    <path class="cls-2" d="M14.66,29.81c-.44-.23-.76-.48-.94-.62-.09-.07-.18-.1-.34,0-.35.24-1.23.79-2.1,1.2-1.73.81-3.7-.06-3.79.26-.04.13.3.41.66.62.42.25.89.44,1.56.57.21.04,1.07.14,2.21.02,1.12-.12,1.92-.47,2.16-.57.8-.33,1.41-.74,1.82-1.06,0,0,0-.02,0-.02-.3-.05-.75-.16-1.23-.41Z"/>
    <path class="cls-2" d="M23.83,0l-12.78,13.23v-3.58c0-.56.07-1.13.2-1.68.07-.3.1-.59.08-.87-.09.02-.18.03-.27.03-.74,0-1.34-.6-1.34-1.34,0-.23.06-.45.16-.64-1.09-.38-2.61-.1-3.99.76-.14-.21-.28-.39-.38-.51-.5-.57-.73-.79-1.27-1.27-.8-.71-2.76-1.72-3.13-1.8-.25-.06-.69-.07-.62.5.02.2.38.59.61.77.99.78,2.44.68,3.25,1.37.49.42.69.65,1.1,1.24-.16.11-.31.23-.46.36-.07.06-.13.12-.2.18-.23-.14-.46-.27-.78-.45-.95-.52-3.09-1.07-3.47-1.07-.25,0-.69.09-.49.63.07.19.51.49.78.62,1.14.54,2.54.13,3.49.62.03.01.06.03.08.04-.36.4-.66.82-.89,1.24-.17.29-.33.67-.44,1.11-.15.64-.83,3.69-.83,3.69,0,0,1.71-.23,3.12-.64v.3c-.78.72-1.28,1.85-1.28,3.14s.5,2.42,1.28,3.14v2.89c0,2.22,2.36,4.02,5.27,4.02h0c.14,0,.3,0,.37-.08,0,0,0-.02,0-.03-.08-.15-.19-.35-.26-.5-.74-1.62-1.02-3.23-.85-4.43.22.29.46.59.72.88,1.01,1.14,2.19,2.1,3.36,2.79.64.38,1.29.68,1.89.89,2.14.87,4.9.57,6.67-.78l-7.47-7.85h0c1.69-.2,3.86-1.24,5.96-3,1.51-1.27,2.75-2.71,3.6-4.12.47-.78.83-1.54,1.05-2.25,1-2.54.25-5.67-1.87-7.55Z"/>
  </g>
  <circle class="cls-1" cx="11.35" cy="5.58" r="1.3"/>
</svg>